<svg width="132" height="80" xmlns="http://www.w3.org/2000/svg" xmlns:xlink="http://www.w3.org/1999/xlink" xml:space="preserve" overflow="hidden"><g transform="translate(-476 -183)"><path d="M48.2766 20.5196C48.2758 21.0959 47.7687 21.5635 47.1425 21.5635 46.5163 21.5635 46.0084 21.0975 46.0084 20.5188 46.0084 19.9417 46.5155 19.474 47.1425 19.474 47.7687 19.474 48.2758 19.9409 48.2758 20.5188M54.8033 0.160171C45.2752 0.535244 40.8878 8.03188 42.4332 16.5539L41.1582 19.5151C41.1582 19.5151 42.3213 23.6111 44.3737 26.3115 45.8153 28.2086 48.8939 32.571 51.4325 32.7271 51.4317 32.728 52.8668 31.8265 52.3002 28.772 54.289 30.43 59.5191 37.8639 58.4237 44.4993 59.8741 44.2498 61.438 44.1138 63.0694 44.1138L64.255 44.1379C61.4701 32.9581 68.7326 33.8153 68.7326 33.8153 72.6483 33.6254 73.4709 37.0864 73.4709 37.0864 69.7596 38.6913 66.4443 41.8223 65.3794 44.2063 66.5771 44.3029 67.7216 44.4751 68.7913 44.7094L69.9061 44.8092C70.9194 42.5563 74.2548 39.365 78.961 38.7195 78.961 38.7195 77.7561 35.1007 80.7776 33.3646 85.5352 30.3922 84.0631 24.0055 84.0631 24.0055 86.0672 23.4984 87.3228 22.341 87.3904 20.2531 87.5595 18.443 86.225 16.504 86.225 16.504 85.5384 20.101 78.1746 26.1014 65.9718 24.8699 62.774 24.5488 60.1131 23.6843 57.9665 22.6444L58.5018 22.7394 57.5842 22.4545C53.0551 20.1525 50.9464 17.123 51.0212 17.1101 56.1781 16.2835 55.2718 12.6825 55.2718 12.6825 55.2718 12.6825 51.8559 13.9783 49.3455 14.2037 49.0106 13.1171 48.5784 11.9476 48.8311 10.7862 50.6783 2.30034 64.1786 3.92861 63.0107 11.2707 63.0107 11.2707 66.0072 0.944122 54.8041 0.159366" fill="#1A1919" fill-rule="evenodd" transform="matrix(1 0 0 1.00398 476 183)"/><path d="M0.0281707 58.1194C0.0281707 55.9913 0.701049 54.3309 2.04841 53.1364 3.39498 51.9452 4.95644 51.3488 6.73522 51.3488 8.53895 51.3488 10.1077 51.9396 11.4421 53.1195 12.7758 54.3003 13.4423 55.9672 13.4423 58.1194L13.4423 72.7513C13.4423 74.8794 12.7686 76.5399 11.422 77.7335 10.0755 78.9263 8.5132 79.5236 6.73522 79.5236 4.93068 79.5228 3.36278 78.9328 2.02829 77.752 0.69461 76.5713 0.0281707 74.9044 0.0281707 72.7513L0.0281707 58.1186ZM4.02841 72.7521C4.02841 73.66 4.28356 74.3538 4.79305 74.8335 5.30334 75.314 5.95046 75.5531 6.73522 75.5531 7.51998 75.5531 8.1671 75.314 8.67659 74.8335 9.18688 74.3538 9.44122 73.66 9.44122 72.7513L9.44122 58.1194C9.44122 57.2115 9.18688 56.5177 8.67659 56.038 8.1671 55.5583 7.51998 55.3185 6.73522 55.3185 5.95046 55.3185 5.30334 55.5583 4.79385 56.038 4.28356 56.5177 4.02922 57.2115 4.02922 58.1194L4.02922 72.7521 4.02841 72.7521Z" fill="#1A1919" fill-rule="evenodd" transform="matrix(1 0 0 1.00398 476 183)"/><path d="M17.7572 51.5806 21.7567 51.5806 21.7567 75.3189 29.6799 75.3197 29.6799 79.2893 17.7564 79.2885 17.7564 51.5806ZM33.0539 51.5806 38.9762 51.5806C41.2251 51.5806 42.958 52.21 44.1733 53.4689 45.3887 54.7277 45.9972 56.4839 45.9972 58.7408L45.9972 71.6993C45.9972 74.217 45.3629 76.1101 44.0952 77.3818 42.8268 78.6535 41.0029 79.2885 38.6237 79.2885L33.0539 79.2885 33.0539 51.5806ZM37.0542 75.5531 38.8981 75.5531C40.0226 75.5531 40.8202 75.2811 41.291 74.7361 41.7611 74.1912 41.9969 73.3099 41.9969 72.0897L41.9969 58.7408C41.9969 57.5995 41.7611 56.7439 41.291 56.1724 40.8202 55.6018 40.0226 55.316 38.8981 55.316L37.055 55.316 37.055 75.5539 37.0542 75.5531ZM58.6265 51.5806 62.6276 51.5806 62.6268 64.2269 68.5515 51.5806 72.5678 51.5887 67.1075 62.6944 73.5715 79.2885 69.325 79.2926 64.7862 66.99 62.6268 70.9983 62.6276 79.2885 58.6265 79.2885 58.6273 51.5806ZM76.1197 51.5806 80.1192 51.5806 80.12 63.488 85.0611 63.4888 85.0619 51.5806 89.063 51.5806 89.0622 79.2877 85.0627 79.2877 85.0619 66.9908 80.1208 66.9908 80.12 79.2885 76.1205 79.2885 76.1189 51.5806ZM98.0446 51.5806 101.378 51.5806 107.616 79.2893 103.597 79.2926 102.418 73.3389 97.0047 73.3389 95.8264 79.2926 91.8076 79.2885 98.0454 51.5806 98.0446 51.5806ZM99.7316 59.6213 97.6872 69.5978 101.696 69.5978 99.7316 59.6213 99.7324 59.6221ZM110.361 51.5798 114.36 51.5798 114.36 64.226 120.283 51.5798 124.301 51.5879 118.841 62.6936 125.305 79.2877 121.058 79.2918 116.52 66.9892 114.36 70.9975 114.36 79.2877 110.361 79.2877 110.361 51.5798Z" fill="#1A1919" fill-rule="evenodd" transform="matrix(1 0 0 1.00398 476 183)"/><path d="M127.972 51.5822 131.972 51.5822 131.972 79.2885 127.972 79.2885Z" fill="#1A1919" fill-rule="evenodd" transform="matrix(1 0 0 1.00398 476 183)"/></g></svg>